<mxfile host="app.diagrams.net" agent="Mozilla/5.0 (Macintosh; Intel Mac OS X 10_14_6) AppleWebKit/605.1.15 (KHTML, like Gecko) Version/14.1.2 Safari/605.1.15" version="24.8.3">
  <diagram name="Page-1" id="JNNMsCdFVjWHwH4HeEpe">
    <mxGraphModel dx="1122" dy="676" grid="1" gridSize="10" guides="1" tooltips="1" connect="1" arrows="1" fold="1" page="1" pageScale="1" pageWidth="850" pageHeight="1100" math="0" shadow="0">
      <root>
        <mxCell id="0" />
        <mxCell id="1" parent="0" />
        <mxCell id="EtlvLcI5YiUNyRkpiE0m-1" value="" style="sketch=0;outlineConnect=0;fontColor=#232F3E;gradientColor=none;fillColor=#232F3D;strokeColor=none;dashed=0;verticalLabelPosition=bottom;verticalAlign=top;align=center;html=1;fontSize=12;fontStyle=0;aspect=fixed;pointerEvents=1;shape=mxgraph.aws4.users;" vertex="1" parent="1">
          <mxGeometry x="200" y="150" width="50" height="50" as="geometry" />
        </mxCell>
        <mxCell id="EtlvLcI5YiUNyRkpiE0m-6" style="edgeStyle=orthogonalEdgeStyle;rounded=0;orthogonalLoop=1;jettySize=auto;html=1;exitX=1;exitY=0.5;exitDx=0;exitDy=0;" edge="1" parent="1">
          <mxGeometry relative="1" as="geometry">
            <mxPoint x="820" y="270" as="targetPoint" />
            <mxPoint x="810" y="270" as="sourcePoint" />
          </mxGeometry>
        </mxCell>
        <mxCell id="EtlvLcI5YiUNyRkpiE0m-4" value="Auto Scaling group" style="points=[[0,0],[0.25,0],[0.5,0],[0.75,0],[1,0],[1,0.25],[1,0.5],[1,0.75],[1,1],[0.75,1],[0.5,1],[0.25,1],[0,1],[0,0.75],[0,0.5],[0,0.25]];outlineConnect=0;gradientColor=none;html=1;whiteSpace=wrap;fontSize=12;fontStyle=0;container=1;pointerEvents=0;collapsible=0;recursiveResize=0;shape=mxgraph.aws4.groupCenter;grIcon=mxgraph.aws4.group_auto_scaling_group;grStroke=1;strokeColor=#D86613;fillColor=none;verticalAlign=top;align=center;fontColor=#D86613;dashed=1;spacingTop=25;" vertex="1" parent="1">
          <mxGeometry x="620" y="100" width="210" height="520" as="geometry" />
        </mxCell>
        <mxCell id="EtlvLcI5YiUNyRkpiE0m-8" value="Availability zone" style="sketch=0;outlineConnect=0;gradientColor=none;html=1;whiteSpace=wrap;fontSize=12;fontStyle=0;shape=mxgraph.aws4.group;grIcon=mxgraph.aws4.group_availability_zone;strokeColor=#545B64;fillColor=none;verticalAlign=top;align=left;spacingLeft=30;fontColor=#545B64;dashed=1;" vertex="1" parent="EtlvLcI5YiUNyRkpiE0m-4">
          <mxGeometry x="30" y="70" width="160" height="130" as="geometry" />
        </mxCell>
        <mxCell id="EtlvLcI5YiUNyRkpiE0m-15" value="Availability zone" style="sketch=0;outlineConnect=0;gradientColor=none;html=1;whiteSpace=wrap;fontSize=12;fontStyle=0;shape=mxgraph.aws4.group;grIcon=mxgraph.aws4.group_availability_zone;strokeColor=#545B64;fillColor=none;verticalAlign=top;align=left;spacingLeft=30;fontColor=#545B64;dashed=1;" vertex="1" parent="EtlvLcI5YiUNyRkpiE0m-4">
          <mxGeometry x="30" y="220" width="160" height="130" as="geometry" />
        </mxCell>
        <mxCell id="EtlvLcI5YiUNyRkpiE0m-19" value="Availability zone" style="sketch=0;outlineConnect=0;gradientColor=none;html=1;whiteSpace=wrap;fontSize=12;fontStyle=0;shape=mxgraph.aws4.group;grIcon=mxgraph.aws4.group_availability_zone;strokeColor=#545B64;fillColor=none;verticalAlign=top;align=left;spacingLeft=30;fontColor=#545B64;dashed=1;" vertex="1" parent="EtlvLcI5YiUNyRkpiE0m-4">
          <mxGeometry x="30" y="370" width="160" height="130" as="geometry" />
        </mxCell>
        <mxCell id="EtlvLcI5YiUNyRkpiE0m-20" value="" style="sketch=0;outlineConnect=0;fontColor=#232F3E;gradientColor=none;fillColor=#ED7100;strokeColor=none;dashed=0;verticalLabelPosition=bottom;verticalAlign=top;align=center;html=1;fontSize=12;fontStyle=0;aspect=fixed;pointerEvents=1;shape=mxgraph.aws4.m5_instance;" vertex="1" parent="EtlvLcI5YiUNyRkpiE0m-4">
          <mxGeometry x="86" y="100" width="40" height="40" as="geometry" />
        </mxCell>
        <mxCell id="EtlvLcI5YiUNyRkpiE0m-26" value="" style="sketch=0;outlineConnect=0;fontColor=#232F3E;gradientColor=none;fillColor=#ED7100;strokeColor=none;dashed=0;verticalLabelPosition=bottom;verticalAlign=top;align=center;html=1;fontSize=12;fontStyle=0;aspect=fixed;pointerEvents=1;shape=mxgraph.aws4.m5_instance;" vertex="1" parent="EtlvLcI5YiUNyRkpiE0m-4">
          <mxGeometry x="90" y="150" width="40" height="40" as="geometry" />
        </mxCell>
        <mxCell id="EtlvLcI5YiUNyRkpiE0m-27" value="" style="sketch=0;outlineConnect=0;fontColor=#232F3E;gradientColor=none;fillColor=#ED7100;strokeColor=none;dashed=0;verticalLabelPosition=bottom;verticalAlign=top;align=center;html=1;fontSize=12;fontStyle=0;aspect=fixed;pointerEvents=1;shape=mxgraph.aws4.m5_instance;" vertex="1" parent="EtlvLcI5YiUNyRkpiE0m-4">
          <mxGeometry x="90" y="250" width="40" height="40" as="geometry" />
        </mxCell>
        <mxCell id="EtlvLcI5YiUNyRkpiE0m-28" value="" style="sketch=0;outlineConnect=0;fontColor=#232F3E;gradientColor=none;fillColor=#ED7100;strokeColor=none;dashed=0;verticalLabelPosition=bottom;verticalAlign=top;align=center;html=1;fontSize=12;fontStyle=0;aspect=fixed;pointerEvents=1;shape=mxgraph.aws4.m5_instance;" vertex="1" parent="EtlvLcI5YiUNyRkpiE0m-4">
          <mxGeometry x="90" y="300" width="40" height="40" as="geometry" />
        </mxCell>
        <mxCell id="EtlvLcI5YiUNyRkpiE0m-29" value="" style="sketch=0;outlineConnect=0;fontColor=#232F3E;gradientColor=none;fillColor=#ED7100;strokeColor=none;dashed=0;verticalLabelPosition=bottom;verticalAlign=top;align=center;html=1;fontSize=12;fontStyle=0;aspect=fixed;pointerEvents=1;shape=mxgraph.aws4.m5_instance;" vertex="1" parent="EtlvLcI5YiUNyRkpiE0m-4">
          <mxGeometry x="85" y="420" width="40" height="40" as="geometry" />
        </mxCell>
        <mxCell id="EtlvLcI5YiUNyRkpiE0m-7" value="Auto Scaling group 1 to 3" style="points=[[0,0],[0.25,0],[0.5,0],[0.75,0],[1,0],[1,0.25],[1,0.5],[1,0.75],[1,1],[0.75,1],[0.5,1],[0.25,1],[0,1],[0,0.75],[0,0.5],[0,0.25]];outlineConnect=0;gradientColor=none;html=1;whiteSpace=wrap;fontSize=12;fontStyle=0;container=1;pointerEvents=0;collapsible=0;recursiveResize=0;shape=mxgraph.aws4.groupCenter;grIcon=mxgraph.aws4.group_auto_scaling_group;grStroke=1;strokeColor=#D86613;fillColor=none;verticalAlign=top;align=center;fontColor=#D86613;dashed=1;spacingTop=25;" vertex="1" parent="1">
          <mxGeometry x="350" y="100" width="210" height="520" as="geometry" />
        </mxCell>
        <mxCell id="EtlvLcI5YiUNyRkpiE0m-36" value="ELB + Multi AZ +&amp;nbsp;&lt;div&gt;Health Checks&lt;/div&gt;" style="sketch=0;points=[[0,0,0],[0.25,0,0],[0.5,0,0],[0.75,0,0],[1,0,0],[0,1,0],[0.25,1,0],[0.5,1,0],[0.75,1,0],[1,1,0],[0,0.25,0],[0,0.5,0],[0,0.75,0],[1,0.25,0],[1,0.5,0],[1,0.75,0]];outlineConnect=0;fontColor=#232F3E;fillColor=#ED7100;strokeColor=#ffffff;dashed=0;verticalLabelPosition=bottom;verticalAlign=top;align=center;html=1;fontSize=12;fontStyle=0;aspect=fixed;shape=mxgraph.aws4.resourceIcon;resIcon=mxgraph.aws4.elastic_load_balancing;" vertex="1" parent="EtlvLcI5YiUNyRkpiE0m-7">
          <mxGeometry x="66" y="190" width="78" height="78" as="geometry" />
        </mxCell>
        <mxCell id="EtlvLcI5YiUNyRkpiE0m-30" value="DNS Query for&amp;nbsp;&lt;div&gt;api.whatisthetime.com&lt;/div&gt;&lt;div&gt;Alias Record&lt;/div&gt;" style="sketch=0;points=[[0,0,0],[0.25,0,0],[0.5,0,0],[0.75,0,0],[1,0,0],[0,1,0],[0.25,1,0],[0.5,1,0],[0.75,1,0],[1,1,0],[0,0.25,0],[0,0.5,0],[0,0.75,0],[1,0.25,0],[1,0.5,0],[1,0.75,0]];outlineConnect=0;fontColor=#232F3E;fillColor=#8C4FFF;strokeColor=#ffffff;dashed=0;verticalLabelPosition=bottom;verticalAlign=top;align=center;html=1;fontSize=12;fontStyle=0;aspect=fixed;shape=mxgraph.aws4.resourceIcon;resIcon=mxgraph.aws4.route_53;" vertex="1" parent="1">
          <mxGeometry x="40" y="280" width="78" height="78" as="geometry" />
        </mxCell>
        <mxCell id="EtlvLcI5YiUNyRkpiE0m-31" value="" style="sketch=0;outlineConnect=0;fontColor=#232F3E;gradientColor=none;fillColor=#232F3D;strokeColor=none;dashed=0;verticalLabelPosition=bottom;verticalAlign=top;align=center;html=1;fontSize=12;fontStyle=0;aspect=fixed;pointerEvents=1;shape=mxgraph.aws4.users;" vertex="1" parent="1">
          <mxGeometry x="210" y="290" width="50" height="50" as="geometry" />
        </mxCell>
        <mxCell id="EtlvLcI5YiUNyRkpiE0m-32" value="" style="sketch=0;outlineConnect=0;fontColor=#232F3E;gradientColor=none;fillColor=#232F3D;strokeColor=none;dashed=0;verticalLabelPosition=bottom;verticalAlign=top;align=center;html=1;fontSize=12;fontStyle=0;aspect=fixed;pointerEvents=1;shape=mxgraph.aws4.users;" vertex="1" parent="1">
          <mxGeometry x="200" y="420" width="50" height="50" as="geometry" />
        </mxCell>
        <mxCell id="EtlvLcI5YiUNyRkpiE0m-33" value="" style="endArrow=classic;startArrow=classic;html=1;rounded=0;" edge="1" parent="1" source="EtlvLcI5YiUNyRkpiE0m-30" target="EtlvLcI5YiUNyRkpiE0m-31">
          <mxGeometry width="50" height="50" relative="1" as="geometry">
            <mxPoint x="400" y="360" as="sourcePoint" />
            <mxPoint x="450" y="310" as="targetPoint" />
          </mxGeometry>
        </mxCell>
        <mxCell id="EtlvLcI5YiUNyRkpiE0m-34" value="" style="endArrow=classic;startArrow=classic;html=1;rounded=0;exitX=1;exitY=0;exitDx=0;exitDy=0;exitPerimeter=0;" edge="1" parent="1" source="EtlvLcI5YiUNyRkpiE0m-30" target="EtlvLcI5YiUNyRkpiE0m-1">
          <mxGeometry width="50" height="50" relative="1" as="geometry">
            <mxPoint x="128" y="328" as="sourcePoint" />
            <mxPoint x="220" y="326" as="targetPoint" />
          </mxGeometry>
        </mxCell>
        <mxCell id="EtlvLcI5YiUNyRkpiE0m-35" value="" style="endArrow=classic;startArrow=classic;html=1;rounded=0;exitX=1;exitY=1;exitDx=0;exitDy=0;exitPerimeter=0;" edge="1" parent="1" source="EtlvLcI5YiUNyRkpiE0m-30" target="EtlvLcI5YiUNyRkpiE0m-32">
          <mxGeometry width="50" height="50" relative="1" as="geometry">
            <mxPoint x="128" y="290" as="sourcePoint" />
            <mxPoint x="210" y="210" as="targetPoint" />
          </mxGeometry>
        </mxCell>
        <mxCell id="EtlvLcI5YiUNyRkpiE0m-37" value="" style="endArrow=classic;startArrow=classic;html=1;rounded=0;" edge="1" parent="1" source="EtlvLcI5YiUNyRkpiE0m-36" target="EtlvLcI5YiUNyRkpiE0m-20">
          <mxGeometry width="50" height="50" relative="1" as="geometry">
            <mxPoint x="128" y="290" as="sourcePoint" />
            <mxPoint x="210" y="210" as="targetPoint" />
          </mxGeometry>
        </mxCell>
        <mxCell id="EtlvLcI5YiUNyRkpiE0m-38" value="" style="endArrow=classic;startArrow=classic;html=1;rounded=0;" edge="1" parent="1" source="EtlvLcI5YiUNyRkpiE0m-36" target="EtlvLcI5YiUNyRkpiE0m-26">
          <mxGeometry width="50" height="50" relative="1" as="geometry">
            <mxPoint x="500" y="320" as="sourcePoint" />
            <mxPoint x="716" y="238" as="targetPoint" />
          </mxGeometry>
        </mxCell>
        <mxCell id="EtlvLcI5YiUNyRkpiE0m-39" value="" style="endArrow=classic;startArrow=classic;html=1;rounded=0;exitX=1;exitY=0.5;exitDx=0;exitDy=0;exitPerimeter=0;" edge="1" parent="1" source="EtlvLcI5YiUNyRkpiE0m-36" target="EtlvLcI5YiUNyRkpiE0m-27">
          <mxGeometry width="50" height="50" relative="1" as="geometry">
            <mxPoint x="510" y="330" as="sourcePoint" />
            <mxPoint x="720" y="284" as="targetPoint" />
          </mxGeometry>
        </mxCell>
        <mxCell id="EtlvLcI5YiUNyRkpiE0m-40" value="" style="endArrow=classic;startArrow=classic;html=1;rounded=0;" edge="1" parent="1" source="EtlvLcI5YiUNyRkpiE0m-36" target="EtlvLcI5YiUNyRkpiE0m-28">
          <mxGeometry width="50" height="50" relative="1" as="geometry">
            <mxPoint x="520" y="340" as="sourcePoint" />
            <mxPoint x="730" y="294" as="targetPoint" />
          </mxGeometry>
        </mxCell>
        <mxCell id="EtlvLcI5YiUNyRkpiE0m-41" value="" style="endArrow=classic;startArrow=classic;html=1;rounded=0;exitX=1;exitY=0.75;exitDx=0;exitDy=0;exitPerimeter=0;" edge="1" parent="1" source="EtlvLcI5YiUNyRkpiE0m-36" target="EtlvLcI5YiUNyRkpiE0m-29">
          <mxGeometry width="50" height="50" relative="1" as="geometry">
            <mxPoint x="530" y="350" as="sourcePoint" />
            <mxPoint x="740" y="304" as="targetPoint" />
          </mxGeometry>
        </mxCell>
        <mxCell id="EtlvLcI5YiUNyRkpiE0m-42" value="" style="endArrow=classic;html=1;rounded=0;entryX=0;entryY=0.25;entryDx=0;entryDy=0;entryPerimeter=0;" edge="1" parent="1" source="EtlvLcI5YiUNyRkpiE0m-1" target="EtlvLcI5YiUNyRkpiE0m-36">
          <mxGeometry width="50" height="50" relative="1" as="geometry">
            <mxPoint x="400" y="360" as="sourcePoint" />
            <mxPoint x="450" y="310" as="targetPoint" />
          </mxGeometry>
        </mxCell>
        <mxCell id="EtlvLcI5YiUNyRkpiE0m-43" value="" style="endArrow=classic;html=1;rounded=0;entryX=0;entryY=0.5;entryDx=0;entryDy=0;entryPerimeter=0;" edge="1" parent="1" source="EtlvLcI5YiUNyRkpiE0m-31" target="EtlvLcI5YiUNyRkpiE0m-36">
          <mxGeometry width="50" height="50" relative="1" as="geometry">
            <mxPoint x="260" y="203" as="sourcePoint" />
            <mxPoint x="426" y="320" as="targetPoint" />
          </mxGeometry>
        </mxCell>
        <mxCell id="EtlvLcI5YiUNyRkpiE0m-44" value="" style="endArrow=classic;html=1;rounded=0;entryX=0;entryY=0.75;entryDx=0;entryDy=0;entryPerimeter=0;" edge="1" parent="1" source="EtlvLcI5YiUNyRkpiE0m-32" target="EtlvLcI5YiUNyRkpiE0m-36">
          <mxGeometry width="50" height="50" relative="1" as="geometry">
            <mxPoint x="260" y="203" as="sourcePoint" />
            <mxPoint x="426" y="320" as="targetPoint" />
          </mxGeometry>
        </mxCell>
        <mxCell id="EtlvLcI5YiUNyRkpiE0m-45" value="Auto Scaling Group - This enabled scaling the number across AZ based on load&lt;div&gt;ELB.- To distribute load across healthy EC2 instances&lt;/div&gt;&lt;div&gt;Multi AZ - This is to remediate AZ failure&lt;/div&gt;&lt;div&gt;Route 53 - This will provide a single domain for all users&lt;/div&gt;&lt;div&gt;M5 Ec2 - This can further be optimised to reserved instances for cost optimization&lt;/div&gt;" style="text;html=1;align=left;verticalAlign=middle;whiteSpace=wrap;rounded=0;" vertex="1" parent="1">
          <mxGeometry x="49" y="660" width="611" height="30" as="geometry" />
        </mxCell>
        <mxCell id="EtlvLcI5YiUNyRkpiE0m-47" value="ElastiCache" style="sketch=0;points=[[0,0,0],[0.25,0,0],[0.5,0,0],[0.75,0,0],[1,0,0],[0,1,0],[0.25,1,0],[0.5,1,0],[0.75,1,0],[1,1,0],[0,0.25,0],[0,0.5,0],[0,0.75,0],[1,0.25,0],[1,0.5,0],[1,0.75,0]];outlineConnect=0;fontColor=#232F3E;fillColor=#C925D1;strokeColor=#ffffff;dashed=0;verticalLabelPosition=bottom;verticalAlign=top;align=center;html=1;fontSize=12;fontStyle=0;aspect=fixed;shape=mxgraph.aws4.resourceIcon;resIcon=mxgraph.aws4.elasticache;" vertex="1" parent="1">
          <mxGeometry x="905" y="220" width="48" height="48" as="geometry" />
        </mxCell>
        <mxCell id="EtlvLcI5YiUNyRkpiE0m-49" value="RDS Multi AZ" style="sketch=0;outlineConnect=0;fontColor=#232F3E;gradientColor=none;fillColor=#C925D1;strokeColor=none;dashed=0;verticalLabelPosition=bottom;verticalAlign=top;align=center;html=1;fontSize=12;fontStyle=0;aspect=fixed;pointerEvents=1;shape=mxgraph.aws4.rds_multi_az_db_cluster;" vertex="1" parent="1">
          <mxGeometry x="890" y="392" width="78" height="78" as="geometry" />
        </mxCell>
        <mxCell id="EtlvLcI5YiUNyRkpiE0m-50" value="" style="endArrow=classic;html=1;rounded=0;entryX=0;entryY=0.5;entryDx=0;entryDy=0;entryPerimeter=0;" edge="1" parent="1" source="EtlvLcI5YiUNyRkpiE0m-20" target="EtlvLcI5YiUNyRkpiE0m-47">
          <mxGeometry width="50" height="50" relative="1" as="geometry">
            <mxPoint x="520" y="360" as="sourcePoint" />
            <mxPoint x="570" y="310" as="targetPoint" />
          </mxGeometry>
        </mxCell>
        <mxCell id="EtlvLcI5YiUNyRkpiE0m-51" value="" style="endArrow=classic;html=1;rounded=0;" edge="1" parent="1" source="EtlvLcI5YiUNyRkpiE0m-20" target="EtlvLcI5YiUNyRkpiE0m-49">
          <mxGeometry width="50" height="50" relative="1" as="geometry">
            <mxPoint x="756" y="234" as="sourcePoint" />
            <mxPoint x="900" y="264" as="targetPoint" />
          </mxGeometry>
        </mxCell>
        <mxCell id="EtlvLcI5YiUNyRkpiE0m-52" value="EC2 Instances accept traffic coming only from ELB. Security groups assigned to Ec2 is thet of ELB" style="text;html=1;align=left;verticalAlign=middle;whiteSpace=wrap;rounded=0;" vertex="1" parent="1">
          <mxGeometry x="480" y="40" width="220" height="30" as="geometry" />
        </mxCell>
        <mxCell id="EtlvLcI5YiUNyRkpiE0m-53" value="Text" style="text;html=1;align=center;verticalAlign=middle;resizable=0;points=[];autosize=1;strokeColor=none;fillColor=none;" vertex="1" parent="1">
          <mxGeometry x="885" y="68" width="50" height="30" as="geometry" />
        </mxCell>
      </root>
    </mxGraphModel>
  </diagram>
</mxfile>
